<?xml version="1.0" encoding="UTF-8"?>
<mxfile host="app.diagrams.net" agent="Mozilla/5.0 (Windows NT 10.0; Win64; x64) AppleWebKit/537.36 (KHTML, like Gecko) Chrome/137.0.0.0 Safari/537.36 Edg/137.0.0.0" version="27.0.9">
  <diagram name="Página-1" id="UeFAgp2IqJQQrzLOy8mY">
    <mxGraphModel dx="1548" dy="856" grid="1" gridSize="10" guides="1" tooltips="1" connect="1" arrows="1" fold="1" page="1" pageScale="1" pageWidth="827" pageHeight="1169" math="0" shadow="0">
      <root>
        <mxCell id="0"/>
        <mxCell id="1" parent="0"/>
        
        <!-- AWS Infrastructure Container -->
        <mxCell id="container" value="AWS Infrastructure" style="whiteSpace=wrap;strokeWidth=2;fillColor=#F5F5F5;fontSize=16;fontStyle=1;" vertex="1" parent="1">
          <mxGeometry x="20" y="20" width="264" height="886" as="geometry"/>
        </mxCell>

        <!-- EventBridge -->
        <mxCell id="eventbridge" value="" style="shape=mxgraph.aws4.event_bridge;whiteSpace=wrap;strokeWidth=2;" vertex="1" parent="container">
          <mxGeometry x="67" y="46" width="146" height="54" as="geometry"/>
        </mxCell>
        <mxCell id="label_eventbridge" value="EventBridge" style="text;html=1;align=center;verticalAlign=bottom;resizable=0;points=[];fontSize=12;" vertex="1" parent="container">
          <mxGeometry x="67" y="100" width="146" height="20" as="geometry"/>
        </mxCell>

        <!-- Lambda Function -->
        <mxCell id="lambda" value="" style="shape=mxgraph.aws4.lambda;whiteSpace=wrap;strokeWidth=2;" vertex="1" parent="container">
          <mxGeometry x="48" y="140" width="183" height="54" as="geometry"/>
        </mxCell>
        <mxCell id="label_lambda" value="Lambda Function" style="text;html=1;align=center;verticalAlign=bottom;resizable=0;points=[];fontSize=12;" vertex="1" parent="container">
          <mxGeometry x="48" y="194" width="183" height="20" as="geometry"/>
        </mxCell>

        <!-- SSM Run Command -->
        <mxCell id="ssm" value="" style="shape=mxgraph.aws4.systems_manager_run_command;whiteSpace=wrap;strokeWidth=2;" vertex="1" parent="container">
          <mxGeometry x="43" y="230" width="194" height="54" as="geometry"/>
        </mxCell>
        <mxCell id="label_ssm" value="SSM Run Command" style="text;html=1;align=center;verticalAlign=bottom;resizable=0;points=[];fontSize=12;" vertex="1" parent="container">
          <mxGeometry x="43" y="284" width="194" height="20" as="geometry"/>
        </mxCell>

        <!-- EC2 Instance -->
        <mxCell id="ec2" value="" style="shape=mxgraph.aws4.ec2_instance;whiteSpace=wrap;strokeWidth=2;" vertex="1" parent="container">
          <mxGeometry x="64" y="330" width="151" height="54" as="geometry"/>
        </mxCell>
        <mxCell id="label_ec2" value="EC2 Instance" style="text;html=1;align=center;verticalAlign=bottom;resizable=0;points=[];fontSize=12;" vertex="1" parent="container">
          <mxGeometry x="64" y="384" width="151" height="20" as="geometry"/>
        </mxCell>

        <!-- Resultado -->
        <mxCell id="resultado" value="Resultado" style="ellipse;whiteSpace=wrap;strokeWidth=2;fillColor=#DFF0D8;borderColor=#3C763D;" vertex="1" parent="container">
          <mxGeometry x="75" y="460" width="130" height="54" as="geometry"/>
        </mxCell>

        <!-- CloudWatch Logs -->
        <mxCell id="cloudwatch" value="" style="shape=mxgraph.aws4.cloudwatch;whiteSpace=wrap;strokeWidth=2;" vertex="1" parent="container">
          <mxGeometry x="49" y="550" width="181" height="54" as="geometry"/>
        </mxCell>
        <mxCell id="label_cloudwatch" value="CloudWatch Logs" style="text;html=1;align=center;verticalAlign=bottom;resizable=0;points=[];fontSize=12;" vertex="1" parent="container">
          <mxGeometry x="49" y="604" width="181" height="20" as="geometry"/>
        </mxCell>

        <!-- Conexões -->
        <mxCell id="edge1" value="Dispara evento" style="curved=1;startArrow=none;endArrow=block;exitX=0.5;exitY=0.99;entryX=0.5;entryY=0;rounded=0;labelBackgroundColor=#ffffff;" edge="1" parent="container" source="eventbridge" target="lambda">
          <mxGeometry relative="1" as="geometry">
            <Array as="points"/>
          </mxGeometry>
        </mxCell>

        <mxCell id="edge2" value="Executa RunCommand" style="curved=1;startArrow=none;endArrow=block;exitX=0.5;exitY=1;entryX=0.5;entryY=0.01;rounded=0;labelBackgroundColor=#ffffff;" edge="1" parent="container" source="lambda" target="ssm">
          <mxGeometry relative="1" as="geometry">
            <Array as="points"/>
          </mxGeometry>
        </mxCell>

        <mxCell id="edge3" value="Executa comando" style="curved=1;startArrow=none;endArrow=block;exitX=0.5;exitY=1.01;entryX=0.5;entryY=-0.01;rounded=0;labelBackgroundColor=#ffffff;" edge="1" parent="container" source="ssm" target="ec2">
          <mxGeometry relative="1" as="geometry">
            <Array as="points"/>
          </mxGeometry>
        </mxCell>

        <mxCell id="edge4" value="Processa tarefa" style="curved=1;startArrow=none;endArrow=block;exitX=0.5;exitY=0.99;entryX=0.5;entryY=0;rounded=0;labelBackgroundColor=#ffffff;" edge="1" parent="container" source="ec2" target="resultado">
          <mxGeometry relative="1" as="geometry">
            <Array as="points"/>
          </mxGeometry>
        </mxCell>

        <mxCell id="edge5" value="Logs" style="curved=1;startArrow=none;endArrow=block;exitX=0.5;exitY=1;entryX=0.5;entryY=0.01;rounded=0;labelBackgroundColor=#ffffff;" edge="1" parent="container" source="resultado" target="cloudwatch">
          <mxGeometry relative="1" as="geometry">
            <Array as="points"/>
          </mxGeometry>
        </mxCell>
      </root>
    </mxGraphModel>
  </diagram>
</mxfile>
